<mxfile host="app.diagrams.net" agent="Mozilla/5.0 (Macintosh; Intel Mac OS X 10_15_7) AppleWebKit/537.36 (KHTML, like Gecko) Chrome/134.0.0.0 Safari/537.36" version="26.1.3">
  <diagram name="Page-1" id="Ie9_R2L9l8k5xmj1jL7k">
    <mxGraphModel dx="763" dy="842" grid="1" gridSize="10" guides="1" tooltips="1" connect="1" arrows="1" fold="1" page="1" pageScale="1" pageWidth="827" pageHeight="1169" math="0" shadow="0">
      <root>
        <mxCell id="0" />
        <mxCell id="1" parent="0" />
        <mxCell id="P8ecn19wN0ymjIb-Mf6O-1" value="" style="edgeStyle=orthogonalEdgeStyle;rounded=0;orthogonalLoop=1;jettySize=auto;html=1;entryX=0;entryY=0.5;entryDx=0;entryDy=0;" edge="1" parent="1" source="P8ecn19wN0ymjIb-Mf6O-6" target="P8ecn19wN0ymjIb-Mf6O-28">
          <mxGeometry relative="1" as="geometry" />
        </mxCell>
        <mxCell id="P8ecn19wN0ymjIb-Mf6O-2" style="edgeStyle=orthogonalEdgeStyle;rounded=0;orthogonalLoop=1;jettySize=auto;html=1;exitX=0.5;exitY=1;exitDx=0;exitDy=0;" edge="1" parent="1" source="P8ecn19wN0ymjIb-Mf6O-6" target="P8ecn19wN0ymjIb-Mf6O-14">
          <mxGeometry relative="1" as="geometry" />
        </mxCell>
        <mxCell id="P8ecn19wN0ymjIb-Mf6O-3" style="edgeStyle=orthogonalEdgeStyle;rounded=0;orthogonalLoop=1;jettySize=auto;html=1;exitX=0.5;exitY=0;exitDx=0;exitDy=0;endArrow=none;startFill=1;startArrow=classic;entryX=0.5;entryY=0;entryDx=0;entryDy=0;" edge="1" parent="1" source="P8ecn19wN0ymjIb-Mf6O-6" target="P8ecn19wN0ymjIb-Mf6O-28">
          <mxGeometry relative="1" as="geometry">
            <Array as="points">
              <mxPoint x="1331" y="358.93" />
              <mxPoint x="1491" y="358.93" />
            </Array>
          </mxGeometry>
        </mxCell>
        <mxCell id="P8ecn19wN0ymjIb-Mf6O-4" style="edgeStyle=orthogonalEdgeStyle;rounded=0;orthogonalLoop=1;jettySize=auto;html=1;entryX=0.5;entryY=0;entryDx=0;entryDy=0;exitX=0.5;exitY=1;exitDx=0;exitDy=0;" edge="1" parent="1" source="P8ecn19wN0ymjIb-Mf6O-6" target="P8ecn19wN0ymjIb-Mf6O-39">
          <mxGeometry relative="1" as="geometry" />
        </mxCell>
        <mxCell id="P8ecn19wN0ymjIb-Mf6O-5" style="edgeStyle=orthogonalEdgeStyle;rounded=0;orthogonalLoop=1;jettySize=auto;html=1;exitX=0.5;exitY=1;exitDx=0;exitDy=0;" edge="1" parent="1" source="P8ecn19wN0ymjIb-Mf6O-6" target="P8ecn19wN0ymjIb-Mf6O-12">
          <mxGeometry relative="1" as="geometry" />
        </mxCell>
        <mxCell id="P8ecn19wN0ymjIb-Mf6O-6" value="en attente" style="shape=hexagon;perimeter=hexagonPerimeter2;whiteSpace=wrap;html=1;fixedSize=1;fillColor=#d5e8d4;strokeColor=#82b366;" vertex="1" parent="1">
          <mxGeometry x="1271" y="399.93" width="120" height="80" as="geometry" />
        </mxCell>
        <mxCell id="P8ecn19wN0ymjIb-Mf6O-7" value="" style="edgeStyle=orthogonalEdgeStyle;rounded=0;orthogonalLoop=1;jettySize=auto;html=1;" edge="1" parent="1" source="P8ecn19wN0ymjIb-Mf6O-8" target="P8ecn19wN0ymjIb-Mf6O-33">
          <mxGeometry relative="1" as="geometry" />
        </mxCell>
        <mxCell id="P8ecn19wN0ymjIb-Mf6O-8" value="acceptée" style="shape=hexagon;perimeter=hexagonPerimeter2;whiteSpace=wrap;html=1;fixedSize=1;fillColor=#d5e8d4;strokeColor=#82b366;" vertex="1" parent="1">
          <mxGeometry x="1430" y="699.93" width="120" height="80" as="geometry" />
        </mxCell>
        <mxCell id="P8ecn19wN0ymjIb-Mf6O-9" style="edgeStyle=orthogonalEdgeStyle;rounded=0;orthogonalLoop=1;jettySize=auto;html=1;" edge="1" parent="1" target="P8ecn19wN0ymjIb-Mf6O-6">
          <mxGeometry relative="1" as="geometry">
            <mxPoint x="1191" y="438.93000000000006" as="sourcePoint" />
          </mxGeometry>
        </mxCell>
        <mxCell id="P8ecn19wN0ymjIb-Mf6O-10" value="un client souhaite s&#39;inscrire à une prestation il fais une demande à une annonce" style="rounded=0;whiteSpace=wrap;html=1;fillColor=#ffe6cc;strokeColor=#d79b00;" vertex="1" parent="1">
          <mxGeometry x="1111" y="398.93" width="120" height="80" as="geometry" />
        </mxCell>
        <mxCell id="P8ecn19wN0ymjIb-Mf6O-11" value="" style="edgeStyle=orthogonalEdgeStyle;rounded=0;orthogonalLoop=1;jettySize=auto;html=1;" edge="1" parent="1" source="P8ecn19wN0ymjIb-Mf6O-12" target="P8ecn19wN0ymjIb-Mf6O-8">
          <mxGeometry relative="1" as="geometry" />
        </mxCell>
        <mxCell id="P8ecn19wN0ymjIb-Mf6O-12" value="le prestataire accepte la demande" style="rounded=0;whiteSpace=wrap;html=1;fillColor=#ffe6cc;strokeColor=#d79b00;" vertex="1" parent="1">
          <mxGeometry x="1430" y="559.93" width="120" height="80" as="geometry" />
        </mxCell>
        <mxCell id="P8ecn19wN0ymjIb-Mf6O-13" value="" style="edgeStyle=orthogonalEdgeStyle;rounded=0;orthogonalLoop=1;jettySize=auto;html=1;" edge="1" parent="1" source="P8ecn19wN0ymjIb-Mf6O-14" target="P8ecn19wN0ymjIb-Mf6O-30">
          <mxGeometry relative="1" as="geometry" />
        </mxCell>
        <mxCell id="P8ecn19wN0ymjIb-Mf6O-14" value="le prestataire refuse&lt;div&gt;la demande&lt;/div&gt;" style="rounded=0;whiteSpace=wrap;html=1;fillColor=#ffe6cc;strokeColor=#d79b00;" vertex="1" parent="1">
          <mxGeometry x="1271" y="559.93" width="120" height="80" as="geometry" />
        </mxCell>
        <mxCell id="P8ecn19wN0ymjIb-Mf6O-15" style="edgeStyle=orthogonalEdgeStyle;rounded=0;orthogonalLoop=1;jettySize=auto;html=1;entryX=0.5;entryY=0;entryDx=0;entryDy=0;" edge="1" parent="1" source="P8ecn19wN0ymjIb-Mf6O-16" target="P8ecn19wN0ymjIb-Mf6O-19">
          <mxGeometry relative="1" as="geometry" />
        </mxCell>
        <mxCell id="P8ecn19wN0ymjIb-Mf6O-16" value="un prestataire fourni ses disponibilités pour un service&amp;nbsp;pour lequel il est habilité&lt;span style=&quot;color: rgba(0, 0, 0, 0); font-family: monospace; font-size: 0px; text-align: start; text-wrap-mode: nowrap;&quot;&gt;pour lequel il est habilitépour lequel il est habilité%3CmxGraphModel%3E%3Croot%3E%3CmxCell%20id%3D%220%22%2F%3E%3CmxCell%20id%3D%221%22%20parent%3D%220%22%2F%3E%3CmxCell%20id%3D%222%22%20value%3D%22termin%C3%A9e%22%20style%3D%22shape%3Dhexagon%3Bperimeter%3DhexagonPerimeter2%3BwhiteSpace%3Dwrap%3Bhtml%3D1%3BfixedSize%3D1%3BfillColor%3D%23e1d5e7%3BstrokeColor%3D%239673a6%3B%22%20vertex%3D%221%22%20parent%3D%221%22%3E%3CmxGeometry%20x%3D%221341%22%20y%3D%22600%22%20width%3D%22120%22%20height%3D%2280%22%20as%3D%22geometry%22%2F%3E%3C%2FmxCell%3E%3C%2Froot%3E%3C%2FmxGraphModel%3E&lt;/span&gt;, il dépose une annonce&lt;span style=&quot;background-color: transparent; color: light-dark(rgb(0, 0, 0), rgb(255, 255, 255));&quot;&gt;&amp;nbsp;&lt;/span&gt;" style="rounded=0;whiteSpace=wrap;html=1;fillColor=#ffe6cc;strokeColor=#d79b00;" vertex="1" parent="1">
          <mxGeometry x="911" y="40" width="200" height="80" as="geometry" />
        </mxCell>
        <mxCell id="P8ecn19wN0ymjIb-Mf6O-17" style="edgeStyle=orthogonalEdgeStyle;rounded=0;orthogonalLoop=1;jettySize=auto;html=1;" edge="1" parent="1" source="P8ecn19wN0ymjIb-Mf6O-19" target="P8ecn19wN0ymjIb-Mf6O-25">
          <mxGeometry relative="1" as="geometry" />
        </mxCell>
        <mxCell id="P8ecn19wN0ymjIb-Mf6O-18" value="" style="edgeStyle=orthogonalEdgeStyle;rounded=0;orthogonalLoop=1;jettySize=auto;html=1;" edge="1" parent="1" source="P8ecn19wN0ymjIb-Mf6O-19" target="P8ecn19wN0ymjIb-Mf6O-36">
          <mxGeometry relative="1" as="geometry" />
        </mxCell>
        <mxCell id="P8ecn19wN0ymjIb-Mf6O-19" value="en attente" style="shape=hexagon;perimeter=hexagonPerimeter2;whiteSpace=wrap;html=1;fixedSize=1;fillColor=#e1d5e7;strokeColor=#9673a6;" vertex="1" parent="1">
          <mxGeometry x="951" y="160" width="120" height="80" as="geometry" />
        </mxCell>
        <mxCell id="P8ecn19wN0ymjIb-Mf6O-20" value="" style="edgeStyle=orthogonalEdgeStyle;rounded=0;orthogonalLoop=1;jettySize=auto;html=1;" edge="1" parent="1" source="P8ecn19wN0ymjIb-Mf6O-22" target="P8ecn19wN0ymjIb-Mf6O-27">
          <mxGeometry relative="1" as="geometry" />
        </mxCell>
        <mxCell id="P8ecn19wN0ymjIb-Mf6O-21" value="" style="edgeStyle=orthogonalEdgeStyle;rounded=0;orthogonalLoop=1;jettySize=auto;html=1;" edge="1" parent="1" source="P8ecn19wN0ymjIb-Mf6O-22" target="P8ecn19wN0ymjIb-Mf6O-10">
          <mxGeometry relative="1" as="geometry" />
        </mxCell>
        <mxCell id="P8ecn19wN0ymjIb-Mf6O-22" value="acceptée" style="shape=hexagon;perimeter=hexagonPerimeter2;whiteSpace=wrap;html=1;fixedSize=1;fillColor=#e1d5e7;strokeColor=#9673a6;" vertex="1" parent="1">
          <mxGeometry x="951" y="399" width="120" height="80" as="geometry" />
        </mxCell>
        <mxCell id="P8ecn19wN0ymjIb-Mf6O-23" value="terminée" style="shape=hexagon;perimeter=hexagonPerimeter2;whiteSpace=wrap;html=1;fixedSize=1;fillColor=#e1d5e7;strokeColor=#9673a6;" vertex="1" parent="1">
          <mxGeometry x="951" y="639" width="120" height="80" as="geometry" />
        </mxCell>
        <mxCell id="P8ecn19wN0ymjIb-Mf6O-24" style="edgeStyle=orthogonalEdgeStyle;rounded=0;orthogonalLoop=1;jettySize=auto;html=1;" edge="1" parent="1" source="P8ecn19wN0ymjIb-Mf6O-25" target="P8ecn19wN0ymjIb-Mf6O-22">
          <mxGeometry relative="1" as="geometry" />
        </mxCell>
        <mxCell id="P8ecn19wN0ymjIb-Mf6O-25" value="l&#39;annonce entre dans la plage horaire saisie" style="rounded=0;whiteSpace=wrap;html=1;fillColor=#ffe6cc;strokeColor=#d79b00;" vertex="1" parent="1">
          <mxGeometry x="950" y="279" width="122" height="80" as="geometry" />
        </mxCell>
        <mxCell id="P8ecn19wN0ymjIb-Mf6O-26" value="" style="edgeStyle=orthogonalEdgeStyle;rounded=0;orthogonalLoop=1;jettySize=auto;html=1;" edge="1" parent="1" source="P8ecn19wN0ymjIb-Mf6O-27" target="P8ecn19wN0ymjIb-Mf6O-23">
          <mxGeometry relative="1" as="geometry" />
        </mxCell>
        <mxCell id="P8ecn19wN0ymjIb-Mf6O-27" value="l&#39;annonce sors de la plage horaire saisie" style="rounded=0;whiteSpace=wrap;html=1;fillColor=#ffe6cc;strokeColor=#d79b00;" vertex="1" parent="1">
          <mxGeometry x="950" y="519" width="122" height="80" as="geometry" />
        </mxCell>
        <mxCell id="P8ecn19wN0ymjIb-Mf6O-28" value="la demande ne convent pas au prestataire il lui retourne la demande modifier" style="rounded=0;whiteSpace=wrap;html=1;fillColor=#ffe6cc;strokeColor=#d79b00;" vertex="1" parent="1">
          <mxGeometry x="1431" y="399.93" width="120" height="80" as="geometry" />
        </mxCell>
        <mxCell id="P8ecn19wN0ymjIb-Mf6O-29" value="paiement du client" style="rounded=1;whiteSpace=wrap;html=1;fillColor=#b0e3e6;strokeColor=#0e8088;" vertex="1" parent="1">
          <mxGeometry x="1411" y="647.93" width="160" height="30" as="geometry" />
        </mxCell>
        <mxCell id="P8ecn19wN0ymjIb-Mf6O-30" value="refusée" style="shape=hexagon;perimeter=hexagonPerimeter2;whiteSpace=wrap;html=1;fixedSize=1;fillColor=#d5e8d4;strokeColor=#82b366;" vertex="1" parent="1">
          <mxGeometry x="1271" y="699.93" width="120" height="80" as="geometry" />
        </mxCell>
        <mxCell id="P8ecn19wN0ymjIb-Mf6O-31" style="edgeStyle=orthogonalEdgeStyle;rounded=0;orthogonalLoop=1;jettySize=auto;html=1;endArrow=none;startFill=1;startArrow=classic;" edge="1" parent="1" source="P8ecn19wN0ymjIb-Mf6O-32" target="P8ecn19wN0ymjIb-Mf6O-33">
          <mxGeometry relative="1" as="geometry" />
        </mxCell>
        <mxCell id="P8ecn19wN0ymjIb-Mf6O-32" value="terminée" style="shape=hexagon;perimeter=hexagonPerimeter2;whiteSpace=wrap;html=1;fixedSize=1;fillColor=#d5e8d4;strokeColor=#82b366;" vertex="1" parent="1">
          <mxGeometry x="1431" y="959" width="120" height="80" as="geometry" />
        </mxCell>
        <mxCell id="P8ecn19wN0ymjIb-Mf6O-33" value="le prestataire exécute son service" style="rounded=0;whiteSpace=wrap;html=1;fillColor=#ffe6cc;strokeColor=#d79b00;" vertex="1" parent="1">
          <mxGeometry x="1430" y="820" width="120" height="80" as="geometry" />
        </mxCell>
        <mxCell id="P8ecn19wN0ymjIb-Mf6O-34" value="paiement du prestataire" style="rounded=1;whiteSpace=wrap;html=1;fillColor=#b0e3e6;strokeColor=#0e8088;" vertex="1" parent="1">
          <mxGeometry x="1411" y="909" width="160" height="30" as="geometry" />
        </mxCell>
        <mxCell id="P8ecn19wN0ymjIb-Mf6O-35" value="" style="edgeStyle=orthogonalEdgeStyle;rounded=0;orthogonalLoop=1;jettySize=auto;html=1;" edge="1" parent="1" source="P8ecn19wN0ymjIb-Mf6O-36" target="P8ecn19wN0ymjIb-Mf6O-37">
          <mxGeometry relative="1" as="geometry" />
        </mxCell>
        <mxCell id="P8ecn19wN0ymjIb-Mf6O-36" value="le prestataire souhaite supprimer son annonce" style="rounded=0;whiteSpace=wrap;html=1;fillColor=#ffe6cc;strokeColor=#d79b00;" vertex="1" parent="1">
          <mxGeometry x="1111" y="160" width="120" height="80" as="geometry" />
        </mxCell>
        <mxCell id="P8ecn19wN0ymjIb-Mf6O-37" value="supprimée" style="shape=hexagon;perimeter=hexagonPerimeter2;whiteSpace=wrap;html=1;fixedSize=1;fillColor=#e1d5e7;strokeColor=#9673a6;" vertex="1" parent="1">
          <mxGeometry x="1272" y="160" width="120" height="80" as="geometry" />
        </mxCell>
        <mxCell id="P8ecn19wN0ymjIb-Mf6O-38" value="" style="edgeStyle=orthogonalEdgeStyle;rounded=0;orthogonalLoop=1;jettySize=auto;html=1;" edge="1" parent="1" source="P8ecn19wN0ymjIb-Mf6O-39" target="P8ecn19wN0ymjIb-Mf6O-40">
          <mxGeometry relative="1" as="geometry" />
        </mxCell>
        <mxCell id="P8ecn19wN0ymjIb-Mf6O-39" value="le client souhaite supprimer sa demande" style="rounded=0;whiteSpace=wrap;html=1;fillColor=#ffe6cc;strokeColor=#d79b00;" vertex="1" parent="1">
          <mxGeometry x="1111" y="559.93" width="120" height="80" as="geometry" />
        </mxCell>
        <mxCell id="P8ecn19wN0ymjIb-Mf6O-40" value="supprimée" style="shape=hexagon;perimeter=hexagonPerimeter2;whiteSpace=wrap;html=1;fixedSize=1;fillColor=#d5e8d4;strokeColor=#82b366;" vertex="1" parent="1">
          <mxGeometry x="1111" y="699.93" width="120" height="80" as="geometry" />
        </mxCell>
      </root>
    </mxGraphModel>
  </diagram>
</mxfile>
